<svg width="45" height="23" viewBox="0 0 45 23" fill="none" xmlns="http://www.w3.org/2000/svg">
<path d="M1.40401 18.4326C1.20282 18.1091 0.934563 17.5924 0.768873 17.2098C-0.197647 14.9693 -0.241042 12.6499 0.571624 10.4253C1.46714 7.98362 3.17925 6.11788 5.39239 5.16331C8.1736 3.96813 11.2467 4.20086 13.9135 5.78259C15.6059 6.75294 16.8052 8.25184 17.7165 10.374C17.8309 10.6461 17.9335 10.9341 18.0361 11.1826L1.40401 18.4326ZM6.95855 8.76462C4.98211 9.61269 3.96431 11.4666 4.17734 13.6361L12.5407 10.0347C11.1008 8.34651 9.23086 7.78639 6.95855 8.76462V8.76462ZM13.5822 16.5984C13.5782 16.5984 13.5782 16.6023 13.5782 16.6023L13.4046 16.484C12.9036 17.2926 12.1265 17.9513 11.1442 18.3773C9.27425 19.1899 7.5424 18.9808 6.29579 17.8882L6.18138 18.0618C6.18138 18.0618 6.18139 18.0578 6.17744 18.0578L4.05504 21.2331C4.58367 21.6 5.1478 21.9076 5.73955 22.1561C8.08287 23.1304 10.4814 23.0831 12.8445 22.0575C14.5526 21.316 15.8939 20.1878 16.8092 18.756L13.5822 16.5984ZM23.847 0.493042V18.1407L26.5927 19.253L25.0344 22.8898L22.0047 21.6276C21.3262 21.3317 20.8607 20.8821 20.5135 20.3732C20.1782 19.8565 19.9296 19.1426 19.9296 18.188V0.493042H23.847ZM30.9559 13.6479C30.9559 12.145 31.6226 10.796 32.6719 9.88091L29.8552 6.7411C27.9458 8.42934 26.7426 10.8946 26.7426 13.64C26.7387 16.3893 27.9419 18.8586 29.8473 20.5468L32.6601 17.407C31.6147 16.4879 30.9559 15.1468 30.9559 13.6479V13.6479ZM35.9581 18.6534C35.4058 18.6534 34.8693 18.5588 34.3722 18.3931L33.027 22.3889C33.9462 22.6965 34.9285 22.8662 35.9542 22.8662C40.412 22.8701 44.1321 19.7066 44.996 15.5057L40.8617 14.6616C40.3923 16.9455 38.3764 18.6574 35.9581 18.6534V18.6534ZM35.9699 4.42964C34.9482 4.42964 33.9659 4.59531 33.0467 4.89903L34.3801 8.89874C34.8811 8.73307 35.4137 8.64235 35.966 8.64235C38.3882 8.64629 40.408 10.3661 40.8657 12.6539L45 11.8177C44.1518 7.60889 40.4317 4.43358 35.9699 4.42964V4.42964Z" fill="white"/>
</svg>
